# https://github.com/mikedh/trimesh
v -0.01909375 -0.01450134 0.01231775
v -0.01825589 -0.01450134 0.01231775
v -0.01909375 -0.01450134 0.01468661
v -0.01909375 -0.00000550 0.01231775
v -0.01909347 -0.01262267 -0.00840691
v -0.01909319 -0.01386849 -0.00045180
v -0.01780877 -0.01450134 0.01450064
v -0.01839851 -0.01386849 -0.00045180
v -0.01892155 -0.01450134 0.01517015
v -0.01909375 -0.00000550 0.01468661
v -0.01909319 -0.00000550 0.01031154
v -0.01909347 -0.00718815 -0.00840691
v -0.01840605 -0.01262267 -0.00840691
v -0.01674344 -0.01143218 0.00031535
v -0.01650481 -0.01093697 0.00031535
v -0.01780877 -0.01450134 0.01452156
v -0.01892155 -0.00000550 0.01517015
v -0.01843730 -0.01450134 0.01534218
v -0.01900611 -0.00000550 0.01006047
v -0.01894332 -0.00528820 -0.00840691
v -0.01906947 -0.00593949 -0.00840691
v -0.01909152 -0.00656382 -0.00840691
v -0.01840605 -0.00659362 -0.00840691
v -0.01624245 -0.01005723 -0.00001011
v -0.01677219 -0.01139103 -0.00009845
v -0.01624245 -0.01005723 0.00005731
v -0.01780877 -0.01449850 0.01534218
v -0.01781268 -0.01450134 0.01534218
v -0.01843730 -0.00000550 0.01534218
v -0.01892155 -0.00000550 0.00981870
v -0.01855592 -0.00529103 -0.00840691
v -0.01857769 -0.00000550 0.00981870
v -0.01842335 -0.00596928 -0.00840691
v -0.01624245 -0.00992811 -0.00001011
v -0.01624245 -0.00992811 0.00005731
v -0.01780877 -0.01262409 0.01534218
v -0.01824919 -0.00000550 0.01534218
v -0.01840605 -0.00000550 0.01031154
v -0.01824919 -0.00000550 0.01450296
f 1 2 7
f 1 7 16
f 1 16 28
f 1 28 18
f 1 18 9
f 1 9 3
f 1 3 10
f 1 10 4
f 1 4 12
f 1 12 5
f 1 5 6
f 1 6 8
f 1 8 2
f 2 8 7
f 3 9 17
f 3 17 10
f 4 11 12
f 4 10 17
f 4 17 29
f 4 29 37
f 4 37 39
f 4 39 38
f 4 38 32
f 4 32 30
f 4 30 19
f 4 19 11
f 5 12 22
f 5 22 21
f 5 21 20
f 5 20 31
f 5 31 33
f 5 33 23
f 5 23 13
f 5 13 8
f 5 8 6
f 7 14 15
f 7 15 16
f 7 8 14
f 8 13 14
f 9 18 29
f 9 29 17
f 11 19 20
f 11 20 21
f 11 21 22
f 11 22 12
f 13 23 34
f 13 34 24
f 13 24 15
f 13 15 25
f 13 25 14
f 14 25 15
f 15 24 26
f 15 26 27
f 15 27 16
f 16 27 28
f 18 28 27
f 18 27 36
f 18 36 37
f 18 37 29
f 19 30 20
f 20 30 32
f 20 32 31
f 23 33 34
f 24 34 35
f 24 35 26
f 26 35 36
f 26 36 27
f 31 32 38
f 31 38 34
f 31 34 33
f 34 38 39
f 34 39 37
f 34 37 35
f 35 37 36

