# https://github.com/mikedh/trimesh
v -0.01842575 -0.01468692 -0.01534367
v -0.01842575 -0.01517155 -0.01516570
v -0.01885253 -0.01511323 -0.01511094
v -0.01891438 -0.01468692 -0.01516570
v -0.01842575 -0.01262428 -0.01534367
v -0.01239523 -0.01468692 -0.01534367
v 0.03197086 -0.01517124 -0.01517118
v 0.01586472 -0.01534370 -0.01468656
v -0.01842575 -0.01534338 -0.01468109
v -0.01891438 -0.01517155 -0.01468109
v -0.01908757 -0.01468692 -0.01468109
v -0.01891438 -0.01262428 -0.01516570
v -0.01239523 -0.01262428 -0.01534367
v 0.01586472 -0.01241003 -0.01416909
v 0.02593415 -0.01241034 -0.01534093
v 0.04343194 -0.01468661 -0.01534093
v 0.04343194 -0.01517093 -0.01517118
v 0.03218115 -0.01517124 -0.01517118
v 0.01843774 -0.01534370 -0.01468656
v 0.01586472 -0.01534370 -0.01343806
v -0.01843194 -0.01534338 -0.01107522
v -0.01843194 -0.01534338 0.01232045
v -0.01891438 -0.01517061 0.01232045
v -0.01908757 -0.01468661 0.01232045
v -0.01908757 -0.01468692 -0.01447848
v -0.01908757 -0.01262428 -0.01468109
v 0.02843295 -0.01218736 -0.00218514
v 0.03279967 -0.01215774 -0.00280665
v 0.03197086 -0.01241034 -0.01534093
v 0.04343194 -0.01241065 -0.01534093
v 0.04391438 -0.01468661 -0.01517118
v 0.04385872 -0.01511385 -0.01511368
v 0.04343194 -0.01534276 -0.01468656
v 0.03197086 -0.01534338 -0.01468656
v 0.02031185 -0.01534370 -0.01405957
v 0.01593894 -0.01534370 -0.01343806
v 0.04325257 -0.01534214 0.01262709
v 0.02593415 -0.01534214 0.01262709
v 0.01705846 -0.01424377 0.01262709
v -0.01908757 -0.01387047 0.01232045
v -0.01908757 -0.01262428 -0.01447848
v 0.02843295 -0.01218393 0.00218460
v 0.03279967 -0.01216553 -0.00093938
v 0.04408757 -0.01241065 -0.01423206
v 0.04408757 -0.01241065 -0.01468656
v 0.04391438 -0.01241065 -0.01517118
v 0.04408757 -0.01468661 -0.01468656
v 0.04391438 -0.01517093 -0.01468656
v 0.04343194 -0.01534276 -0.01423206
v 0.04291857 -0.01534307 -0.01423206
v 0.04291857 -0.01534307 -0.01178709
v 0.04338246 -0.01534182 -0.00045750
v 0.04391438 -0.01517093 -0.01423206
v 0.04408757 -0.01468661 -0.01423206
v 0.04325257 -0.01447735 0.01262709
v 0.01705846 -0.01339925 0.01262709
v -0.01908757 -0.01262459 -0.00045477
v -0.00030945 -0.01340518 0.01232045
v 0.03030705 -0.01220576 0.00343310
v 0.03093175 -0.01220514 0.00343310
v 0.03279967 -0.01219017 0.00218460
v 0.03279967 -0.01223102 0.00280885
v 0.03155645 -0.01223788 0.00343310
v 0.02530945 -0.01339894 0.01262709
f 1 2 3
f 1 3 4
f 1 4 12
f 1 12 5
f 1 5 13
f 1 13 6
f 1 6 18
f 1 18 7
f 1 7 2
f 2 8 9
f 2 9 3
f 2 7 8
f 3 10 11
f 3 11 4
f 3 9 10
f 4 11 26
f 4 26 12
f 5 12 14
f 5 14 15
f 5 15 29
f 5 29 13
f 6 13 30
f 6 30 16
f 6 16 17
f 6 17 18
f 7 18 19
f 7 19 8
f 8 19 35
f 8 35 36
f 8 36 20
f 8 20 22
f 8 22 21
f 8 21 9
f 9 21 10
f 10 21 22
f 10 22 23
f 10 23 24
f 10 24 25
f 10 25 11
f 11 25 24
f 11 24 40
f 11 40 57
f 11 57 41
f 11 41 26
f 12 26 27
f 12 27 28
f 12 28 14
f 13 29 30
f 14 28 15
f 15 28 29
f 16 30 46
f 16 46 31
f 16 31 32
f 16 32 17
f 17 32 33
f 17 33 34
f 17 34 18
f 18 34 19
f 19 34 35
f 20 36 22
f 22 36 35
f 22 35 37
f 22 37 38
f 22 38 39
f 22 39 23
f 23 39 24
f 24 39 56
f 24 56 40
f 26 41 42
f 26 42 27
f 27 42 28
f 28 42 43
f 28 43 44
f 28 44 45
f 28 45 46
f 28 46 30
f 28 30 29
f 31 46 45
f 31 45 47
f 31 47 32
f 32 47 48
f 32 48 33
f 33 48 53
f 33 53 49
f 33 49 51
f 33 51 50
f 33 50 34
f 34 50 51
f 34 51 35
f 35 51 37
f 37 51 49
f 37 49 52
f 37 52 53
f 37 53 54
f 37 54 44
f 37 44 55
f 37 55 64
f 37 64 56
f 37 56 39
f 37 39 38
f 40 56 58
f 40 58 57
f 41 57 42
f 42 59 60
f 42 60 61
f 42 61 43
f 42 57 59
f 43 61 44
f 44 54 47
f 44 47 45
f 44 61 62
f 44 62 55
f 47 54 53
f 47 53 48
f 49 53 52
f 55 62 63
f 55 63 64
f 56 64 60
f 56 60 59
f 56 59 58
f 57 58 59
f 60 63 62
f 60 62 61
f 60 64 63

