# https://github.com/mikedh/trimesh
v 0.03405248 0.01464298 0.00281180
v 0.03404683 0.01464298 0.00341528
v 0.03346760 0.01281292 0.00281180
v 0.03346823 0.01281267 -0.00093738
v 0.03405248 0.01464298 0.00093721
v 0.03402861 0.01464298 0.00401789
v 0.03326970 0.01235498 0.00343696
v 0.03329609 0.01232847 0.00281180
v 0.03346823 0.01281267 -0.00281196
v 0.03404117 0.01464298 -0.00000181
v 0.03398840 0.01464298 0.00461269
v 0.03281235 0.01224894 0.00343696
v 0.03281235 0.01215847 0.00281180
v 0.03320374 0.01242113 0.00381153
v 0.03329609 0.01232847 0.00093721
v 0.03329609 0.01232871 -0.00281196
v 0.03327096 0.01235352 -0.00343625
v 0.03341860 0.01281267 -0.00343625
v 0.03359387 0.01450387 -0.00343625
v 0.03342739 0.01450387 -0.00400851
v 0.03341545 0.01450387 -0.00403886
v 0.03281172 0.01450387 -0.00419233
v 0.02968815 0.01450387 -0.00420013
v 0.02776387 0.01464298 -0.00000181
v 0.03339221 0.01464298 0.00464998
v 0.02906306 0.01222949 0.00281180
v 0.03281235 0.01242064 0.00380893
v 0.02932063 0.01247706 0.00376384
v 0.02909258 0.01234890 0.00346644
v 0.02843796 0.01218814 0.00218752
v 0.02843796 0.01218668 0.00156237
v 0.02843796 0.01218255 -0.00218681
v 0.03281172 0.01215847 -0.00093738
v 0.03281235 0.01464298 0.00465778
v 0.02906117 0.01464298 0.00463870
v 0.03281172 0.01216042 -0.00156253
v 0.03281172 0.01216552 -0.00281196
v 0.03281172 0.01221198 -0.00343625
v 0.03320563 0.01241894 -0.00381342
v 0.03281172 0.01281267 -0.00394001
v 0.02968815 0.01240532 -0.00382036
v 0.02907248 0.01450387 -0.00417585
v 0.02906306 0.01450387 -0.00417499
v 0.02851272 0.01450387 -0.00402238
v 0.02848571 0.01450387 -0.00401285
v 0.02785371 0.01450387 -0.00339723
v 0.02768094 0.01450387 -0.00281196
v 0.02763508 0.01450387 -0.00218681
v 0.02776387 0.01464298 0.00393725
v 0.02838394 0.01230220 0.00286383
v 0.02843796 0.01464298 0.00451818
v 0.02855607 0.01238586 0.00327828
v 0.02796679 0.01233844 0.00218752
v 0.02796553 0.01233698 0.00156237
v 0.02795925 0.01233284 -0.00218681
v 0.02843796 0.01222584 -0.00281196
v 0.02968815 0.01223386 -0.00343625
v 0.03281172 0.01237930 -0.00384464
v 0.02906306 0.01243742 -0.00379695
v 0.02906306 0.01226597 -0.00343625
v 0.02874203 0.01249190 -0.00375446
v 0.02810312 0.01246928 -0.00315532
v 0.02793349 0.01281267 -0.00281196
v 0.02779214 0.01281267 -0.00218681
v 0.02780345 0.01281292 0.00156237
v 0.02780722 0.01281292 0.00218752
v 0.02764702 0.01450387 -0.00156253
v 0.02803275 0.01239875 0.00269042
v 0.02780722 0.01464298 0.00398147
v 0.02781727 0.01464298 0.00399101
v 0.02802961 0.01239559 -0.00281196
v 0.02849513 0.01240824 -0.00339290
f 1 2 3
f 1 3 4
f 1 4 9
f 1 9 5
f 1 5 10
f 1 10 24
f 1 24 49
f 1 49 69
f 1 69 70
f 1 70 51
f 1 51 35
f 1 35 34
f 1 34 25
f 1 25 11
f 1 11 6
f 1 6 2
f 2 6 3
f 3 6 7
f 3 7 8
f 3 8 4
f 4 8 15
f 4 15 9
f 5 9 10
f 6 11 7
f 7 12 13
f 7 13 8
f 7 11 14
f 7 14 12
f 8 13 15
f 9 15 16
f 9 16 17
f 9 17 18
f 9 18 10
f 10 18 19
f 10 19 20
f 10 20 21
f 10 21 22
f 10 22 23
f 10 23 24
f 11 25 14
f 12 26 13
f 12 14 27
f 12 27 28
f 12 28 29
f 12 29 26
f 13 26 30
f 13 30 31
f 13 31 32
f 13 32 33
f 13 33 15
f 14 25 34
f 14 34 35
f 14 35 27
f 15 33 16
f 16 33 36
f 16 36 37
f 16 37 17
f 17 38 39
f 17 39 18
f 17 37 38
f 18 39 21
f 18 21 20
f 18 20 19
f 21 39 22
f 22 39 40
f 22 40 23
f 23 40 41
f 23 41 42
f 23 42 24
f 24 42 43
f 24 43 44
f 24 44 45
f 24 45 46
f 24 46 47
f 24 47 48
f 24 48 49
f 26 50 30
f 26 29 50
f 27 35 28
f 28 35 51
f 28 51 52
f 28 52 29
f 29 52 50
f 30 50 53
f 30 53 54
f 30 54 31
f 31 54 55
f 31 55 32
f 32 55 56
f 32 56 57
f 32 57 37
f 32 37 36
f 32 36 33
f 37 57 38
f 38 57 58
f 38 58 39
f 39 58 40
f 40 58 41
f 41 59 42
f 41 58 57
f 41 57 60
f 41 60 59
f 42 59 43
f 43 59 61
f 43 61 44
f 44 61 45
f 45 61 62
f 45 62 46
f 46 62 63
f 46 63 47
f 47 63 64
f 47 64 48
f 48 64 65
f 48 65 66
f 48 66 67
f 48 67 49
f 49 66 68
f 49 68 52
f 49 52 69
f 49 67 66
f 50 52 68
f 50 68 53
f 51 70 52
f 52 70 69
f 53 66 65
f 53 65 64
f 53 64 54
f 53 68 66
f 54 64 55
f 55 64 71
f 55 71 56
f 56 71 62
f 56 62 72
f 56 72 60
f 56 60 57
f 59 60 61
f 60 72 61
f 61 72 62
f 62 71 63
f 63 71 64

