# https://github.com/mikedh/trimesh
v 0.04343716 0.01167629 0.01534075
v 0.04392146 0.01167629 0.01516652
v 0.04392146 0.01516976 0.01386586
v 0.04343716 0.01534398 0.01386586
v 0.04325772 0.01167629 0.01534075
v 0.04343755 -0.01468241 0.01534075
v 0.04409335 0.01167629 0.01468291
v 0.04409335 0.01468614 0.01386586
v 0.04392146 -0.01468241 0.01516652
v 0.04392146 0.01516976 -0.01167571
v 0.04343755 0.01534398 0.00000018
v 0.04343716 0.01534398 0.00000018
v 0.04252491 0.01534098 0.01386586
v 0.04281430 -0.01217421 0.01534075
v 0.04281430 -0.01468241 0.01534075
v 0.04343755 -0.01516904 0.01516652
v 0.04386430 -0.01511196 0.01511246
v 0.04409335 -0.00000565 0.01468291
v 0.04409375 0.00000036 -0.00045340
v 0.04409375 0.01468314 -0.01167872
v 0.04409335 0.01468614 -0.01167571
v 0.04409335 -0.01468241 0.01467990
v 0.04343755 0.01534398 -0.01167571
v 0.04409375 0.01468314 -0.01451133
v 0.04407232 0.01474321 -0.01451133
v 0.04252491 0.01534098 0.00000018
v 0.04037727 0.01240322 -0.01465251
v 0.04003826 -0.00000264 -0.01465251
v 0.04252491 0.01464409 0.01386586
v 0.04003826 -0.01240550 -0.01465251
v 0.04281430 -0.01516904 0.01516652
v 0.04281430 -0.01534326 0.01467990
v 0.04343755 -0.01534025 0.01467990
v 0.04392146 -0.01516904 0.01467990
v 0.04409375 -0.01405761 -0.00045340
v 0.04409296 -0.01468542 -0.01178385
v 0.04409335 -0.01468241 -0.01178385
v 0.04409375 -0.01406062 -0.01178385
v 0.04339587 0.01534098 -0.01167571
v 0.04294927 0.01474321 -0.01451133
v 0.04409375 0.01240322 -0.01468555
v 0.04392067 0.01240322 -0.01516917
v 0.04343716 0.01240322 -0.01534039
v 0.04037727 0.01240322 -0.01534039
v 0.04003826 -0.00000264 -0.01534039
v 0.04003826 -0.01240550 -0.01534039
v 0.04281033 -0.01534025 0.00792729
v 0.04292347 -0.01534025 -0.01423197
v 0.04343755 -0.01534025 -0.01423197
v 0.04281033 -0.01534025 -0.00045039
v 0.04377776 -0.01522010 0.01262228
v 0.04392146 -0.01516904 0.01262228
v 0.04409296 -0.01468542 -0.01423197
v 0.04409375 -0.01406062 -0.01423197
v 0.04409375 -0.00000264 -0.01468555
v 0.04392186 -0.00000264 -0.01516917
v 0.04343716 -0.01240550 -0.01534039
v 0.04392107 -0.01516904 -0.01423197
v 0.04392186 -0.01240550 -0.01516917
v 0.04409296 -0.01240550 -0.01468555
f 1 2 3
f 1 3 4
f 1 4 5
f 1 5 14
f 1 14 15
f 1 15 6
f 1 6 2
f 2 7 8
f 2 8 3
f 2 6 9
f 2 9 18
f 2 18 7
f 3 10 23
f 3 23 11
f 3 11 4
f 3 8 21
f 3 21 10
f 4 11 23
f 4 23 12
f 4 12 26
f 4 26 13
f 4 13 5
f 5 13 14
f 6 15 31
f 6 31 16
f 6 16 17
f 6 17 9
f 7 18 35
f 7 35 19
f 7 19 8
f 8 20 24
f 8 24 21
f 8 19 20
f 9 17 22
f 9 22 18
f 10 21 24
f 10 24 25
f 10 25 23
f 12 23 26
f 13 26 44
f 13 44 27
f 13 27 28
f 13 28 30
f 13 30 29
f 13 29 15
f 13 15 14
f 15 29 30
f 15 30 31
f 16 31 32
f 16 32 33
f 16 33 17
f 17 33 34
f 17 34 22
f 18 22 35
f 19 35 38
f 19 38 54
f 19 54 55
f 19 55 41
f 19 41 24
f 19 24 20
f 22 34 36
f 22 36 53
f 22 53 37
f 22 37 54
f 22 54 38
f 22 38 35
f 23 39 26
f 23 25 40
f 23 40 39
f 24 41 42
f 24 42 25
f 25 42 43
f 25 43 44
f 25 44 40
f 26 39 44
f 27 44 45
f 27 45 28
f 28 45 46
f 28 46 30
f 30 46 50
f 30 50 47
f 30 47 32
f 30 32 31
f 32 48 49
f 32 49 33
f 32 47 50
f 32 50 48
f 33 49 51
f 33 51 34
f 34 51 52
f 34 52 53
f 34 53 36
f 37 53 54
f 39 40 44
f 41 55 59
f 41 59 56
f 41 56 42
f 42 56 43
f 43 56 59
f 43 59 57
f 43 57 46
f 43 46 45
f 43 45 44
f 46 57 49
f 46 49 48
f 46 48 50
f 49 57 58
f 49 58 51
f 51 58 52
f 52 58 53
f 53 59 60
f 53 60 54
f 53 58 59
f 54 60 55
f 55 60 59
f 57 59 58

