# https://github.com/mikedh/trimesh
v -0.01840628 0.01262654 -0.00824141
v -0.01909365 0.01262654 -0.00824141
v -0.01840628 0.00718643 -0.00824141
v -0.01810943 -0.00000361 -0.01455051
v -0.01829191 0.01262654 -0.01438783
v -0.01909365 0.01262654 -0.01468677
v -0.01909375 -0.00000361 -0.01031316
v -0.01909375 -0.00656090 -0.00843816
v -0.01909375 -0.00718623 -0.00840757
v -0.01909365 0.00675636 -0.00824141
v -0.01842103 0.00656110 -0.00824141
v -0.01840638 -0.01262387 -0.00840757
v -0.01810943 -0.01262387 -0.01455051
v -0.01810943 -0.00000361 -0.01534306
v -0.01829191 0.01262654 -0.01534306
v -0.01892177 0.01262654 -0.01517064
v -0.01900617 -0.00000361 -0.01493357
v -0.01909375 -0.00000361 -0.01468677
v -0.01909375 -0.01262387 -0.00840757
v -0.01906697 0.00613350 -0.00824141
v -0.01847836 0.00594566 -0.00824141
v -0.01860207 0.00537223 -0.00824141
v -0.01810943 -0.01262387 -0.01534306
v -0.01843760 0.01262654 -0.01534306
v -0.01877762 0.01262654 -0.01522209
v -0.01892177 -0.01262387 -0.01517064
v -0.01909375 -0.01262387 -0.01468677
v -0.01889787 0.00537223 -0.00824141
v -0.01893169 0.00547604 -0.00824141
v -0.01843760 -0.01262387 -0.01534306
f 1 2 10
f 1 10 20
f 1 20 29
f 1 29 28
f 1 28 22
f 1 22 21
f 1 21 11
f 1 11 3
f 1 3 13
f 1 13 4
f 1 4 5
f 1 5 15
f 1 15 24
f 1 24 25
f 1 25 16
f 1 16 6
f 1 6 2
f 2 6 18
f 2 18 7
f 2 7 8
f 2 8 9
f 2 9 19
f 2 19 10
f 3 11 12
f 3 12 13
f 4 13 23
f 4 23 14
f 4 14 15
f 4 15 5
f 6 16 17
f 6 17 18
f 7 18 27
f 7 27 19
f 7 19 9
f 7 9 8
f 10 19 20
f 11 21 12
f 12 19 27
f 12 27 26
f 12 26 30
f 12 30 23
f 12 23 13
f 12 21 22
f 12 22 28
f 12 28 19
f 14 23 30
f 14 30 24
f 14 24 15
f 16 25 26
f 16 26 17
f 17 26 27
f 17 27 18
f 19 28 29
f 19 29 20
f 24 30 25
f 25 30 26

