# https://github.com/mikedh/trimesh
v -0.01843194 0.01262689 -0.01534375
v -0.01892057 0.01262689 -0.01516933
v -0.01843194 0.01468678 -0.01534375
v -0.01825257 0.01262689 -0.01534375
v 0.02593414 0.01240849 -0.01534089
v 0.02569911 0.01240849 -0.01528942
v 0.02538985 0.01240849 -0.01518077
v -0.01909375 0.01262689 -0.01468325
v -0.01892057 0.01468678 -0.01516933
v 0.02465382 0.01240849 -0.01417429
v 0.02465382 0.01240820 -0.01405992
v -0.01885871 0.01511410 -0.01511215
v -0.01843194 0.01517187 -0.01516933
v -0.01825257 0.01468678 -0.01534375
v 0.04343193 0.01240849 -0.01534089
v -0.01909375 0.01468678 -0.01468325
v -0.01909375 0.01262689 -0.00000355
v 0.02596507 0.01240820 -0.01405992
v 0.02465382 0.01240820 -0.01339942
v -0.01843194 0.01534400 -0.01468325
v -0.01892057 0.01517187 -0.01468325
v -0.01825257 0.01529371 -0.01482621
v -0.01825257 0.01517187 -0.01516933
v 0.04343193 0.01468649 -0.01534089
v 0.04391437 0.01240849 -0.01516647
v -0.01909375 0.01468707 -0.01240724
v -0.01898241 0.01500031 -0.01240724
v -0.01909375 0.01468707 -0.00000355
v -0.01840101 0.01262689 -0.00000355
v -0.00029708 0.01324762 0.01325507
v -0.01838246 0.01407698 0.01325507
v 0.02597126 0.01240820 -0.01405706
v 0.02530326 0.01240820 -0.01339942
v -0.01892057 0.01517187 -0.01240724
v -0.01892057 0.01517158 -0.00000355
v -0.01843194 0.01534343 -0.00000355
v -0.01838246 0.01534343 0.01325507
v 0.03280585 0.01534372 0.00155763
v 0.03280585 0.01534372 0.00093716
v 0.04343193 0.01534343 -0.01468325
v 0.04343193 0.01517158 -0.01516647
v 0.04385253 0.01511410 -0.01510929
v 0.04390819 0.01474540 -0.01515789
v 0.04391437 0.01468649 -0.01516647
v 0.04409375 0.01240849 -0.01468325
v 0.04409375 0.01240849 -0.01451169
v 0.02529707 0.01324762 0.01325507
v 0.04251035 0.01464482 0.01386696
v 0.02775258 0.01464914 0.01386696
v 0.02578570 0.01240820 -0.01357098
v 0.02775258 0.01534343 0.01386696
v 0.04251035 0.01534343 0.01386696
v 0.04338864 0.01534343 -0.00000069
v 0.04343193 0.01534343 -0.01167525
v 0.04391437 0.01517158 -0.01468325
v 0.04409375 0.01468649 -0.01468325
v 0.04409375 0.01468649 -0.01451169
v 0.04406282 0.01474569 -0.01167525
v 0.04338864 0.01403674 -0.00000069
v 0.04405664 0.01477702 -0.01167525
v 0.04391437 0.01517158 -0.01167525
f 1 2 9
f 1 9 3
f 1 3 14
f 1 14 4
f 1 4 15
f 1 15 5
f 1 5 6
f 1 6 7
f 1 7 2
f 2 8 16
f 2 16 9
f 2 7 10
f 2 10 11
f 2 11 8
f 3 9 12
f 3 12 13
f 3 13 23
f 3 23 14
f 4 14 24
f 4 24 15
f 5 15 18
f 5 18 11
f 5 11 6
f 6 11 7
f 7 11 10
f 8 11 19
f 8 19 17
f 8 17 28
f 8 28 26
f 8 26 16
f 9 16 12
f 11 18 32
f 11 32 50
f 11 50 33
f 11 33 19
f 12 20 13
f 12 16 21
f 12 21 20
f 13 20 22
f 13 22 23
f 14 23 41
f 14 41 24
f 15 24 44
f 15 44 25
f 15 25 18
f 16 26 27
f 16 27 21
f 17 19 33
f 17 33 29
f 17 29 47
f 17 47 30
f 17 30 31
f 17 31 37
f 17 37 28
f 18 25 32
f 20 21 34
f 20 34 35
f 20 35 36
f 20 36 37
f 20 37 38
f 20 38 39
f 20 39 40
f 20 40 22
f 21 27 34
f 22 40 23
f 23 40 41
f 24 41 42
f 24 42 43
f 24 43 44
f 25 44 56
f 25 56 45
f 25 45 32
f 26 28 27
f 27 35 34
f 27 28 35
f 28 37 35
f 29 33 46
f 29 46 47
f 30 47 48
f 30 48 49
f 30 49 31
f 31 49 51
f 31 51 37
f 32 45 46
f 32 46 50
f 33 50 46
f 35 37 36
f 37 51 38
f 38 51 52
f 38 52 53
f 38 53 54
f 38 54 40
f 38 40 39
f 40 54 61
f 40 61 55
f 40 55 42
f 40 42 41
f 42 55 56
f 42 56 43
f 43 56 44
f 45 56 57
f 45 57 46
f 46 57 58
f 46 58 59
f 46 59 48
f 46 48 47
f 48 59 53
f 48 53 52
f 48 52 51
f 48 51 49
f 53 59 58
f 53 58 60
f 53 60 61
f 53 61 54
f 55 61 57
f 55 57 56
f 57 61 60
f 57 60 58

