# https://github.com/mikedh/trimesh
v 0.02719228 0.00156250 -0.01464339
v 0.02719564 0.00094914 -0.01464339
v 0.02779220 0.00156250 -0.01281285
v 0.02720773 0.00218662 -0.01464339
v 0.02721445 0.00034731 -0.01464339
v 0.02784661 -0.00281172 -0.01281285
v 0.02798702 -0.00281172 -0.01236464
v 0.02795948 0.00156250 -0.01233252
v 0.02724736 0.00280997 -0.01464339
v 0.02722990 -0.00000549 -0.01464339
v 0.02749257 -0.00303616 -0.01455701
v 0.02800717 -0.00324215 -0.01238581
v 0.02843847 -0.00281172 -0.01219261
v 0.02843847 0.00156250 -0.01218312
v 0.02843847 0.00218662 -0.01222497
v 0.02802867 0.00218662 -0.01239336
v 0.02810123 0.00253326 -0.01246660
v 0.02781504 0.00338413 -0.01464339
v 0.02906325 -0.00379863 -0.01455701
v 0.02881737 -0.00379786 -0.01455701
v 0.02843847 -0.00379478 -0.01455701
v 0.02820469 -0.00378633 -0.01455701
v 0.02768202 -0.00356804 -0.01455701
v 0.03404401 -0.00000549 -0.01464339
v 0.02843847 -0.00348119 -0.01281285
v 0.02843847 -0.00330133 -0.01232839
v 0.02906325 -0.00281172 -0.01215757
v 0.03218647 0.00218662 -0.01215830
v 0.03281192 0.00281227 -0.01217850
v 0.02906325 0.00281227 -0.01225369
v 0.02849222 0.00277000 -0.01240333
v 0.02873675 0.00313356 -0.01248704
v 0.02844116 0.00399979 -0.01464339
v 0.03218714 -0.00379863 -0.01455701
v 0.03377999 -0.00281172 -0.01455701
v 0.03356837 -0.00344660 -0.01455701
v 0.03344543 -0.00357112 -0.01455701
v 0.03281192 -0.00379632 -0.01455701
v 0.03405476 0.00031272 -0.01464339
v 0.03346088 -0.00281172 -0.01281285
v 0.03218714 -0.00348119 -0.01281285
v 0.03281192 -0.00330133 -0.01232839
v 0.03281192 -0.00281172 -0.01216317
v 0.03281192 0.00218662 -0.01215830
v 0.03329562 0.00281227 -0.01232839
v 0.03323852 0.00324039 -0.01238557
v 0.03281192 0.00326729 -0.01235053
v 0.02950933 0.00319504 -0.01241380
v 0.02906325 0.00318428 -0.01242547
v 0.02906325 0.00403591 -0.01464339
v 0.03281192 -0.00347965 -0.01281285
v 0.03323919 -0.00324215 -0.01238581
v 0.03329629 -0.00330133 -0.01281285
v 0.03346760 0.00031272 -0.01281285
v 0.03405476 0.00281227 -0.01464339
v 0.03329293 -0.00281172 -0.01233179
v 0.03329562 0.00031272 -0.01232839
v 0.03346760 0.00281227 -0.01281285
v 0.03399766 0.00399825 -0.01464339
v 0.03340848 0.00404130 -0.01464339
v 0.03281192 0.00405359 -0.01464339
v 0.03403931 0.00340565 -0.01464339
f 1 2 3
f 1 3 4
f 1 4 9
f 1 9 18
f 1 18 33
f 1 33 50
f 1 50 61
f 1 61 60
f 1 60 59
f 1 59 62
f 1 62 55
f 1 55 39
f 1 39 24
f 1 24 10
f 1 10 5
f 1 5 2
f 2 5 6
f 2 6 7
f 2 7 3
f 3 8 9
f 3 9 4
f 3 7 8
f 5 10 6
f 6 11 12
f 6 12 7
f 6 10 11
f 7 12 13
f 7 13 8
f 8 14 15
f 8 15 16
f 8 16 9
f 8 13 14
f 9 17 18
f 9 16 17
f 10 19 20
f 10 20 21
f 10 21 22
f 10 22 23
f 10 23 11
f 10 24 34
f 10 34 19
f 11 23 12
f 12 23 22
f 12 22 25
f 12 25 26
f 12 26 13
f 13 26 27
f 13 27 14
f 14 28 29
f 14 29 30
f 14 30 15
f 14 27 28
f 15 30 31
f 15 31 17
f 15 17 16
f 17 31 32
f 17 32 33
f 17 33 18
f 19 34 41
f 19 41 25
f 19 25 20
f 20 25 21
f 21 25 22
f 24 35 36
f 24 36 37
f 24 37 38
f 24 38 34
f 24 39 40
f 24 40 35
f 25 41 42
f 25 42 26
f 26 42 27
f 27 42 43
f 27 43 44
f 27 44 28
f 28 44 29
f 29 44 45
f 29 45 46
f 29 46 47
f 29 47 30
f 30 47 48
f 30 48 49
f 30 49 32
f 30 32 31
f 32 49 33
f 33 49 50
f 34 38 51
f 34 51 41
f 35 40 36
f 36 40 52
f 36 52 53
f 36 53 37
f 37 53 51
f 37 51 38
f 39 54 40
f 39 55 58
f 39 58 54
f 40 56 52
f 40 54 56
f 41 51 42
f 42 51 52
f 42 52 43
f 43 52 56
f 43 56 57
f 43 57 44
f 44 57 45
f 45 57 54
f 45 54 58
f 45 58 59
f 45 59 46
f 46 59 47
f 47 59 60
f 47 60 61
f 47 61 50
f 47 50 48
f 48 50 49
f 51 53 52
f 54 57 56
f 55 62 58
f 58 62 59

