# https://github.com/mikedh/trimesh
v -0.01843755 0.01534398 0.01325761
v -0.01843755 0.01534398 -0.00000246
v -0.01892179 0.01517120 0.01325761
v -0.01839105 0.01534248 0.01325761
v -0.01839105 0.01534248 -0.00000246
v -0.01892179 0.01517120 -0.00000246
v -0.01909368 0.01468589 0.01325761
v -0.01839105 0.01407588 0.01325761
v -0.01839105 0.01407588 -0.00000246
v -0.01909368 0.01468589 -0.00000246
v -0.01909375 0.00839945 0.01325631
v -0.01909368 0.00839945 0.01325761
v -0.01840632 0.00839945 0.01325761
v -0.01840632 -0.00000550 0.01325631
v -0.01840632 0.01031213 -0.00000246
v -0.01840632 -0.00000550 0.01031121
v -0.01909368 0.01031213 -0.00000246
v -0.01909375 0.00839945 0.00718700
v -0.01909375 -0.00000550 0.01325631
v -0.01857821 0.00982231 -0.00000246
v -0.01857814 -0.00000550 0.00982058
v -0.01892179 0.00982231 -0.00000246
v -0.01892186 -0.00000550 0.00982058
v -0.01909375 -0.00000550 0.01031121
v -0.01909375 0.00781198 0.00718700
f 1 2 6
f 1 6 3
f 1 3 7
f 1 7 12
f 1 12 13
f 1 13 8
f 1 8 4
f 1 4 5
f 1 5 2
f 2 5 9
f 2 9 15
f 2 15 20
f 2 20 22
f 2 22 17
f 2 17 10
f 2 10 6
f 3 6 10
f 3 10 7
f 4 8 9
f 4 9 5
f 7 10 18
f 7 18 11
f 7 11 19
f 7 19 12
f 8 13 14
f 8 14 16
f 8 16 9
f 9 16 15
f 10 17 25
f 10 25 18
f 11 18 25
f 11 25 24
f 11 24 19
f 12 19 14
f 12 14 13
f 14 19 24
f 14 24 23
f 14 23 21
f 14 21 16
f 15 16 21
f 15 21 20
f 17 22 23
f 17 23 24
f 17 24 25
f 20 21 23
f 20 23 22

