# https://github.com/mikedh/trimesh
v 0.02465172 0.01262654 -0.01339901
v 0.02465172 0.01262654 -0.01424734
v 0.01280577 0.01262654 -0.01339882
v 0.01236362 -0.01262263 -0.01339901
v 0.01586630 -0.01262263 -0.01339939
v 0.02530631 -0.01240761 -0.01340300
v 0.02530631 0.01240410 -0.01340300
v 0.04037358 0.01240657 -0.01465628
v -0.00092359 0.01262654 -0.01534356
v 0.04037358 0.01240657 -0.01534375
v 0.01262202 0.01262654 -0.01339882
v 0.01217988 -0.01262263 -0.01339901
v 0.04003480 -0.01240761 -0.01465609
v 0.01586630 -0.01262263 -0.01424354
v 0.04037358 -0.00000299 -0.01465628
v -0.01828770 0.01262654 -0.01534356
v 0.04037358 -0.00000299 -0.01534375
v 0.02593795 0.01240657 -0.01534375
v -0.00030345 0.01262654 -0.01339901
v -0.00030919 -0.01262263 -0.01339939
v 0.04003480 -0.01240761 -0.01534375
v -0.00093508 -0.01262263 -0.01534375
v -0.01828770 0.01262654 -0.01438880
v -0.01810395 -0.00000546 -0.01534375
v -0.01828770 -0.00000546 -0.01534356
v -0.01828770 -0.00000546 -0.01438880
v -0.01810395 -0.01262263 -0.01455100
v -0.01810395 -0.01262263 -0.01534375
f 1 2 9
f 1 9 16
f 1 16 23
f 1 23 19
f 1 19 11
f 1 11 3
f 1 3 4
f 1 4 5
f 1 5 6
f 1 6 7
f 1 7 8
f 1 8 10
f 1 10 2
f 2 10 9
f 3 11 12
f 3 12 4
f 4 12 20
f 4 20 27
f 4 27 28
f 4 28 22
f 4 22 14
f 4 14 5
f 5 13 6
f 5 14 21
f 5 21 13
f 6 13 15
f 6 15 8
f 6 8 7
f 8 15 17
f 8 17 10
f 9 10 18
f 9 18 16
f 10 17 21
f 10 21 22
f 10 22 28
f 10 28 24
f 10 24 18
f 11 19 12
f 12 19 20
f 13 21 17
f 13 17 15
f 14 22 21
f 16 18 24
f 16 24 28
f 16 28 25
f 16 25 26
f 16 26 23
f 19 23 26
f 19 26 20
f 20 26 27
f 25 28 27
f 25 27 26

