# https://github.com/mikedh/trimesh
v -0.01916418 0.00537444 -0.00824071
v -0.01925876 0.00547809 -0.00824071
v -0.01833582 0.00537444 -0.00824071
v -0.01900477 0.00548306 -0.00802943
v -0.01923107 0.00982367 -0.00000246
v -0.01946980 0.01006576 -0.00000246
v -0.01971230 0.01031211 -0.00000246
v -0.01963752 0.00613479 -0.00824071
v -0.01849526 0.00548306 -0.00802943
v -0.01798930 0.00594595 -0.00824071
v -0.01778770 0.01031211 -0.00000246
v -0.01826893 0.00982367 -0.00000246
v -0.01971250 0.01093686 -0.00000246
v -0.01971250 0.01031211 -0.00093789
v -0.01971250 0.00675954 -0.00824071
v -0.01782858 0.00656289 -0.00824071
v -0.01778770 0.01262654 -0.00000246
v -0.01778770 0.00718764 -0.00781171
v -0.01971250 0.01262654 -0.00000246
v -0.01971250 0.01262654 -0.00824071
v -0.01778770 0.00718764 -0.00824071
v -0.01778770 0.01262654 -0.00824071
f 1 2 8
f 1 8 15
f 1 15 20
f 1 20 22
f 1 22 21
f 1 21 16
f 1 16 10
f 1 10 3
f 1 3 9
f 1 9 4
f 1 4 5
f 1 5 6
f 1 6 7
f 1 7 2
f 2 7 8
f 3 10 11
f 3 11 12
f 3 12 9
f 4 9 12
f 4 12 5
f 5 12 11
f 5 11 17
f 5 17 19
f 5 19 13
f 5 13 7
f 5 7 6
f 7 13 14
f 7 14 15
f 7 15 8
f 10 16 11
f 11 16 18
f 11 18 21
f 11 21 22
f 11 22 17
f 13 19 20
f 13 20 15
f 13 15 14
f 16 21 18
f 17 22 20
f 17 20 19

