# https://github.com/mikedh/trimesh
v 0.11114113 -0.00218713 0.01449632
v 0.11159798 -0.00218713 0.01281267
v 0.11132025 -0.00281357 0.01449632
v 0.11114278 -0.00156234 0.01449632
v 0.11205318 -0.00218713 0.01233673
v 0.11223557 -0.00270027 0.01239674
v 0.11210083 -0.00280043 0.01281267
v 0.11161442 0.00218724 0.01281290
v 0.11205976 0.00218724 0.01233948
v 0.11180832 -0.00337186 0.01449632
v 0.11132683 -0.00095643 0.01449632
v 0.11148951 0.00298034 0.01449449
v 0.11337604 -0.00218713 0.01218602
v 0.11321336 -0.00286940 0.01230077
v 0.11337604 0.00218724 0.01218877
v 0.11368661 -0.00328647 0.01238552
v 0.11252643 -0.00311242 0.01281267
v 0.11164726 0.00318067 0.01449449
v 0.11177875 0.00334405 0.01449449
v 0.11211562 0.00277427 0.01281290
v 0.11224380 0.00268231 0.01240040
v 0.11323469 0.00285965 0.01230283
v 0.11340068 -0.00337350 0.01281267
v 0.11337604 -0.00376184 0.01449632
v 0.11134326 -0.00093590 0.01449632
v 0.12562195 -0.00281193 0.01215831
v 0.11512615 -0.00281193 0.01223618
v 0.11515574 -0.00347120 0.01234154
v 0.11862640 0.00281204 0.01215648
v 0.11512615 0.00281204 0.01220595
v 0.11576046 -0.00377251 0.01246476
v 0.11476461 -0.00368549 0.01281267
v 0.11177217 -0.00040142 0.01449632
v 0.11188554 0.00338757 0.01449449
v 0.11258067 0.00308625 0.01281290
v 0.11187406 -0.00035544 0.01449632
v 0.11372441 0.00326606 0.01238575
v 0.11512615 0.00337525 0.01232826
v 0.11499141 -0.00406644 0.01449632
v 0.12562195 -0.00093755 0.01216518
v 0.12702534 0.00218724 0.01232826
v 0.12697930 -0.00281193 0.01232849
v 0.12692017 -0.00343672 0.01234933
v 0.12562195 -0.00343672 0.01223481
v 0.12212335 0.00343683 0.01221122
v 0.12562360 0.00218724 0.01219656
v 0.12562195 -0.00382177 0.01240659
v 0.12562195 -0.00389485 0.01281267
v 0.12562195 -0.00418056 0.01449632
v 0.11515902 0.00401154 0.01449449
v 0.11345491 0.00334241 0.01281290
v 0.11285347 -0.00000569 0.01449632
v 0.11512615 0.00363551 0.01281290
v 0.12086128 0.00380711 0.01242560
v 0.12212335 0.00384077 0.01238323
v 0.12562360 0.00281204 0.01222290
v 0.12679691 0.00281204 0.01239078
v 0.12757419 0.00218724 0.01281290
v 0.12746079 -0.00281193 0.01281267
v 0.12734249 -0.00343672 0.01281267
v 0.12673940 -0.00381931 0.01241346
v 0.12387346 0.00343683 0.01226481
v 0.12731455 -0.00404017 0.01449632
v 0.12212335 0.00420694 0.01449449
v 0.12212335 0.00393272 0.01281290
v 0.11332345 -0.00000487 0.01449632
v 0.12387346 0.00379890 0.01243682
v 0.12545434 0.00339249 0.01241071
v 0.12656521 0.00315440 0.01246911
v 0.12709436 0.00281204 0.01281290
v 0.12775331 0.00281204 0.01449449
v 0.12792750 0.00218478 0.01449449
v 0.12787656 -0.00281193 0.01449632
v 0.12781905 -0.00342276 0.01449632
v 0.12781740 -0.00343672 0.01449632
v 0.12735728 -0.00400158 0.01449632
v 0.12686100 -0.00385462 0.01281267
v 0.12475756 0.00375210 0.01249683
v 0.12387346 0.00416917 0.01449449
v 0.12773194 -0.00000487 0.01449632
v 0.12547405 0.00400661 0.01449449
v 0.12724718 0.00339331 0.01449449
v 0.12779438 -0.00031275 0.01449632
v 0.12787656 -0.00093755 0.01449632
f 1 2 3
f 1 3 10
f 1 10 24
f 1 24 39
f 1 39 49
f 1 49 63
f 1 63 76
f 1 76 75
f 1 75 74
f 1 74 73
f 1 73 84
f 1 84 83
f 1 83 80
f 1 80 66
f 1 66 52
f 1 52 36
f 1 36 33
f 1 33 25
f 1 25 11
f 1 11 4
f 1 4 2
f 2 5 6
f 2 6 7
f 2 7 3
f 2 4 8
f 2 8 9
f 2 9 5
f 3 7 10
f 4 11 12
f 4 12 8
f 5 13 14
f 5 14 6
f 5 9 15
f 5 15 13
f 6 14 16
f 6 16 17
f 6 17 7
f 7 17 10
f 8 12 18
f 8 18 19
f 8 19 20
f 8 20 21
f 8 21 9
f 9 21 22
f 9 22 15
f 10 17 23
f 10 23 24
f 11 25 18
f 11 18 12
f 13 26 27
f 13 27 28
f 13 28 14
f 13 15 29
f 13 29 26
f 14 28 16
f 15 22 30
f 15 30 29
f 16 23 17
f 16 28 31
f 16 31 32
f 16 32 23
f 18 25 33
f 18 33 19
f 19 34 35
f 19 35 21
f 19 21 20
f 19 33 36
f 19 36 34
f 21 35 37
f 21 37 22
f 22 37 38
f 22 38 30
f 23 32 24
f 24 32 39
f 26 40 41
f 26 41 42
f 26 42 43
f 26 43 44
f 26 44 27
f 26 29 40
f 27 44 28
f 28 44 31
f 29 30 45
f 29 45 46
f 29 46 40
f 30 38 45
f 31 44 47
f 31 47 48
f 31 48 49
f 31 49 39
f 31 39 32
f 34 50 51
f 34 51 35
f 34 36 52
f 34 52 50
f 35 51 37
f 37 51 53
f 37 53 38
f 38 53 54
f 38 54 55
f 38 55 45
f 40 46 41
f 41 46 56
f 41 56 57
f 41 57 58
f 41 58 42
f 42 59 43
f 42 58 59
f 43 60 61
f 43 61 44
f 43 59 60
f 44 61 47
f 45 55 62
f 45 62 56
f 45 56 46
f 47 61 48
f 48 61 49
f 49 61 63
f 50 64 65
f 50 65 54
f 50 54 53
f 50 53 51
f 50 52 64
f 52 66 64
f 54 65 55
f 55 67 62
f 55 65 67
f 56 62 68
f 56 68 69
f 56 69 57
f 57 69 70
f 57 70 58
f 58 70 71
f 58 71 72
f 58 72 73
f 58 73 59
f 59 73 74
f 59 74 75
f 59 75 60
f 60 75 76
f 60 76 63
f 60 63 77
f 60 77 61
f 61 77 63
f 62 67 78
f 62 78 68
f 64 79 65
f 64 66 80
f 64 80 79
f 65 79 67
f 67 79 78
f 68 78 69
f 69 78 81
f 69 81 82
f 69 82 70
f 70 82 71
f 71 82 80
f 71 80 72
f 72 80 83
f 72 83 84
f 72 84 73
f 78 79 81
f 79 80 81
f 80 82 81

